<svg width="65" height="65" viewBox="0 0 65 65" fill="none" xmlns="http://www.w3.org/2000/svg">
<path d="M18.8743 18.8746C19.063 18.6854 19.2872 18.5353 19.534 18.4329C19.7807 18.3305 20.0453 18.2778 20.3125 18.2778C20.5796 18.2778 20.8442 18.3305 21.091 18.4329C21.3378 18.5353 21.5619 18.6854 21.7506 18.8746L32.5 29.628L43.2493 18.8746C43.4382 18.6857 43.6624 18.5359 43.9092 18.4337C44.1559 18.3315 44.4204 18.2789 44.6875 18.2789C44.9545 18.2789 45.219 18.3315 45.4658 18.4337C45.7125 18.5359 45.9367 18.6857 46.1256 18.8746C46.3144 19.0634 46.4643 19.2876 46.5665 19.5344C46.6687 19.7812 46.7213 20.0456 46.7213 20.3127C46.7213 20.5798 46.6687 20.8443 46.5665 21.091C46.4643 21.3378 46.3144 21.562 46.1256 21.7508L35.3722 32.5002L46.1256 43.2496C46.3144 43.4384 46.4643 43.6626 46.5665 43.9094C46.6687 44.1562 46.7213 44.4206 46.7213 44.6877C46.7213 44.9548 46.6687 45.2193 46.5665 45.466C46.4643 45.7128 46.3144 45.937 46.1256 46.1258C45.9367 46.3147 45.7125 46.4645 45.4658 46.5667C45.219 46.6689 44.9545 46.7215 44.6875 46.7215C44.4204 46.7215 44.1559 46.6689 43.9092 46.5667C43.6624 46.4645 43.4382 46.3147 43.2493 46.1258L32.5 35.3724L21.7506 46.1258C21.5617 46.3147 21.3375 46.4645 21.0908 46.5667C20.844 46.6689 20.5796 46.7215 20.3125 46.7215C20.0454 46.7215 19.7809 46.6689 19.5342 46.5667C19.2874 46.4645 19.0632 46.3147 18.8743 46.1258C18.6855 45.937 18.5357 45.7128 18.4335 45.466C18.3313 45.2193 18.2787 44.9548 18.2787 44.6877C18.2787 44.4206 18.3313 44.1562 18.4335 43.9094C18.5357 43.6626 18.6855 43.4384 18.8743 43.2496L29.6278 32.5002L18.8743 21.7508C18.6852 21.5622 18.5351 21.338 18.4327 21.0912C18.3303 20.8444 18.2776 20.5799 18.2776 20.3127C18.2776 20.0455 18.3303 19.781 18.4327 19.5342C18.5351 19.2874 18.6852 19.0633 18.8743 18.8746Z" fill="black"/>
</svg>
